<svg xmlns="http://www.w3.org/2000/svg" xmlns:xlink="http://www.w3.org/1999/xlink" width="500" zoomAndPan="magnify" viewBox="0 0 375 374.999991" height="500" preserveAspectRatio="xMidYMid meet" version="1.0"><defs><clipPath id="1c45b3603f"><path d="M 63.167969 65 L 309 65 L 309 310 L 63.167969 310 Z M 63.167969 65 " clip-rule="nonzero"/></clipPath></defs><path fill="#ffffff" d="M 187.5 375 C 83.910156 375 0 290.507812 0 187.5 C 0 84.492188 83.910156 0 187.5 0 C 291.089844 0 375 83.910156 375 187.5 C 375 291.089844 290.507812 375 187.5 375 Z M 187.5 11.574219 C 90.277344 11.574219 11.574219 90.277344 11.574219 187.5 C 11.574219 284.722656 90.277344 363.425781 187.5 363.425781 C 284.722656 363.425781 363.425781 284.722656 363.425781 187.5 C 363.425781 90.277344 284.144531 11.574219 187.5 11.574219 Z M 187.5 11.574219 " fill-opacity="1" fill-rule="nonzero"/><path fill="#ffffff" d="M 88.972656 268.269531 C 83.238281 264.320312 78.074219 239.457031 82.351562 237.113281 C 87.574219 234.269531 87.207031 243.019531 98.304688 253.824219 C 109.402344 264.632812 144.070312 260.28125 152.828125 263.203125 C 162.472656 266.421875 107.664062 281.121094 88.972656 268.269531 Z M 88.972656 268.269531 " fill-opacity="1" fill-rule="nonzero"/><path fill="#ffffff" d="M 98.304688 253.832031 C 88.632812 214.195312 93.269531 192.402344 98.769531 177.84375 C 108.441406 152.226562 178.464844 95.136719 228.695312 77.222656 C 241.980469 72.484375 284.015625 65.644531 307.925781 65.644531 C 312.089844 82.140625 299.621094 113.160156 296.464844 118.824219 C 289.328125 131.628906 271.253906 149.050781 235.304688 185.898438 C 233.519531 187.726562 199.09375 182.644531 197.273438 184.550781 C 195.273438 186.644531 225.882812 195.71875 223.835938 197.910156 C 218.617188 203.5 213.261719 209.398438 207.792969 215.644531 C 206.578125 217.03125 149.003906 209.117188 147.777344 210.539062 C 146.136719 212.449219 200.839844 223.710938 199.175781 225.675781 C 194.613281 231.085938 189.988281 236.738281 185.320312 242.632812 C 173.117188 258.039062 98.304688 253.832031 98.304688 253.832031 Z M 98.304688 253.832031 " fill-opacity="1" fill-rule="nonzero"/><path fill="#ffffff" d="M 195.804688 149.023438 C 207.035156 155.855469 233.515625 162.769531 254.628906 166.15625 C 268.054688 152.453125 277.964844 142.261719 285.0625 134.121094 C 269.082031 130.652344 244.441406 124.921875 232.097656 119.355469 L 226.328125 116.503906 L 191.863281 146.003906 Z M 195.804688 149.023438 " fill-opacity="1" fill-rule="nonzero"/><path fill="#ffffff" d="M 308.546875 69.28125 C 308.40625 68.015625 308.214844 66.789062 307.925781 65.644531 C 305.25 65.644531 302.320312 65.742188 299.257812 65.898438 C 274.9375 67.15625 240.496094 73.015625 228.695312 77.222656 C 226.257812 78.09375 223.730469 79.132812 221.207031 80.179688 C 217.824219 81.582031 214.386719 83.125 210.886719 84.808594 C 213.402344 95.285156 218.851562 107.046875 223.667969 113.195312 C 211.621094 122.554688 200.203125 132.324219 189.457031 142.304688 C 149.457031 179.425781 118.570312 219.210938 97.460938 250.125 C 97.746094 251.355469 98 252.558594 98.3125 253.832031 C 98.3125 253.832031 99.859375 253.914062 102.476562 254.015625 C 112.960938 237.828125 142.820312 195.734375 195.808594 149.03125 C 206.882812 139.277344 218.984375 129.324219 232.097656 119.355469 C 244.441406 124.921875 269.082031 130.652344 285.0625 134.121094 C 287.339844 131.507812 289.347656 129.082031 291.066406 126.847656 C 293.300781 123.933594 295.09375 121.292969 296.464844 118.824219 C 299.398438 113.546875 310.394531 86.328125 308.546875 69.28125 Z M 308.546875 69.28125 " fill-opacity="1" fill-rule="nonzero"/><g clip-path="url(#1c45b3603f)"><path fill="#ffffff" d="M 307.925781 65.644531 C 305.3125 65.644531 302.613281 65.625 299.875 65.585938 C 272.179688 78.84375 246.757812 95.253906 223.675781 113.195312 C 218.863281 107.039062 213.410156 95.285156 210.890625 84.808594 C 200.515625 89.816406 189.761719 95.949219 179.171875 102.769531 C 181.359375 116.285156 185.199219 133.730469 189.464844 142.304688 C 108.632812 217.316406 64.851562 303.363281 64.25 304.570312 C 63.375 306.320312 64.089844 308.441406 65.835938 309.316406 C 66.335938 309.574219 66.875 309.691406 67.414062 309.691406 C 68.714844 309.691406 69.960938 308.972656 70.582031 307.738281 C 71.421875 306.058594 156.488281 138.796875 308.679688 69.210938 C 308.453125 67.980469 308.214844 66.785156 307.925781 65.644531 Z M 307.925781 65.644531 " fill-opacity="1" fill-rule="nonzero"/></g></svg>